# xmcd
#
# Track frame offsets:
#   150
#   23920
#   42332
#   59045
#   80808
#   100376
#   115896
#   137809
#   154781
#   171407
#   188516
#   207932
#   225615
#   238773
#   256403
#   278863
#   300626
#
# Disc length: 4269 seconds
#
# Revision: 0
# Processed by: cddbd v1.5.1PL2 Copyright (c) Steve Scherf et al.
# Submitted via: uFREEDB ActiveX Control 1.5
#
DISCID=f510ab11
DTITLE=Banda Shalom - Essência do Amor
DYEAR=1900
DGENRE=Gospel and Religious
TTITLE0=Nossa Forma de Amar
TTITLE1=Para Sempre
TTITLE2=Sonhos Lindos
TTITLE3=Essência do Amor
TTITLE4=Minha Bênção
TTITLE5=Só depende de Você
TTITLE6=Por Isso Eu Te Amo
TTITLE7=DeVolta Para Casa
TTITLE8=Ele Vem
TTITLE9=Mil Motivos
TTITLE10=Vida
TTITLE11=Brilho do Sol
TTITLE12=No Meu Ser
TTITLE13=É pra Valer
TTITLE14=Nossa Forma de Amar PB
TTITLE15=Essência do Amor
TTITLE16=Minha Bênção
EXTD=
EXTT0=
EXTT1=
EXTT2=
EXTT3=
EXTT4=
EXTT5=
EXTT6=
EXTT7=
EXTT8=
EXTT9=
EXTT10=
EXTT11=
EXTT12=
EXTT13=
EXTT14=
EXTT15=
EXTT16=
PLAYORDER=
